<?xml version="1.0" encoding="UTF-8" standalone="no"?>
<svg width="500" height="350">
    <rect x="0" y="0" width="500" height="350" fill="rgb(255,255,255)" stroke-width="0" stroke="rgb(0,0,0)"/>

    <rect x="0" y="0" width="100" height="100" fill="#FFC107" stroke-width="4" stroke="rgb(0,0,0)"/>
    <rect x="100" y="0" width="100" height="100" fill="#FFC107" stroke-width="4" stroke="rgb(0,0,0)"/>
    <rect x="200" y="0" width="100" height="100" fill="#F44336" stroke-width="4" stroke="rgb(0,0,0)"/>
    <rect x="300" y="0" width="100" height="100" fill="rgb(255,255,255)" stroke-width="4" stroke="rgb(0,0,0)"/>
    <rect x="400" y="0" width="100" height="100" fill="rgb(255,255,255)" stroke-width="4" stroke="rgb(0,0,0)"/>
    <text x="50" y="70" font-family="sans-serif" font-weight="bold" font-size="50" text-anchor="middle">E</text>
    <text x="150" y="70" font-family="sans-serif" font-weight="bold" font-size="50" text-anchor="middle">C</text>
    <text x="250" y="70" font-family="sans-serif" font-weight="bold" font-size="50" text-anchor="middle">B</text>
    <text x="350" y="70" font-family="sans-serif" font-weight="bold" font-size="50" text-anchor="middle">D</text>
    <text x="450" y="70" font-family="sans-serif" font-weight="bold" font-size="50" text-anchor="middle">A</text>

    <polyline points="230,100 230,150 270,200 270,230" fill="none" stroke-width="5" stroke="rgb(0,0,0)" />
    <polyline points="270,100 270,150 230,200 230,230" fill="none" stroke-width="5" stroke="rgb(0,0,0)" />
    <polyline points="220,230 240,230 230,250 220,230" fill="rgb(0,0,0)" stroke-width="0" />
    <polyline points="260,230 280,230 270,250 260,230" fill="rgb(0,0,0)" stroke-width="0" />

    <rect x="0" y="250" width="100" height="100" fill="#FFC107" stroke-width="4" stroke="rgb(0,0,0)"/>
    <rect x="100" y="250" width="100" height="100" fill="#FFC107" stroke-width="4" stroke="rgb(0,0,0)"/>
    <rect x="200" y="250" width="100" height="100" fill="#4CAF50" stroke-width="4" stroke="rgb(0,0,0)"/>
    <rect x="300" y="250" width="100" height="100" fill="rgb(255,255,255)" stroke-width="4" stroke="rgb(0,0,0)"/>
    <rect x="400" y="250" width="100" height="100" fill="rgb(255,255,255)" stroke-width="4" stroke="rgb(0,0,0)"/>
    <text x="50" y="320" font-family="sans-serif" font-weight="bold" font-size="50" text-anchor="middle">E</text>
    <text x="150" y="320" font-family="sans-serif" font-weight="bold" font-size="50" text-anchor="middle">C</text>
    <text x="250" y="320" font-family="sans-serif" font-weight="bold" font-size="50" text-anchor="middle">B</text>
    <text x="350" y="320" font-family="sans-serif" font-weight="bold" font-size="50" text-anchor="middle">D</text>
    <text x="450" y="320" font-family="sans-serif" font-weight="bold" font-size="50" text-anchor="middle">A</text>
</svg>
